<mxfile host="app.diagrams.net" modified="2020-06-23T07:48:36.944Z" agent="5.0 (Macintosh; Intel Mac OS X 10_15_5) AppleWebKit/537.36 (KHTML, like Gecko) Chrome/83.0.4103.106 Safari/537.36" etag="Dv20rWXZMWKi9HgfjHQh" version="13.3.0" type="github">
  <diagram id="C5RBs43oDa-KdzZeNtuy" name="Page-1">
    <mxGraphModel dx="1139" dy="692" grid="1" gridSize="10" guides="1" tooltips="1" connect="1" arrows="1" fold="1" page="1" pageScale="1" pageWidth="827" pageHeight="1169" math="0" shadow="0">
      <root>
        <mxCell id="WIyWlLk6GJQsqaUBKTNV-0" />
        <mxCell id="WIyWlLk6GJQsqaUBKTNV-1" parent="WIyWlLk6GJQsqaUBKTNV-0" />
        <mxCell id="AribuOAmtC18cTt_f9BC-30" value="" style="edgeStyle=orthogonalEdgeStyle;rounded=0;orthogonalLoop=1;jettySize=auto;html=1;" edge="1" parent="WIyWlLk6GJQsqaUBKTNV-1" source="AribuOAmtC18cTt_f9BC-0" target="AribuOAmtC18cTt_f9BC-8">
          <mxGeometry relative="1" as="geometry" />
        </mxCell>
        <mxCell id="AribuOAmtC18cTt_f9BC-0" value="weride go&amp;nbsp;&lt;br&gt;service" style="ellipse;whiteSpace=wrap;html=1;" vertex="1" parent="WIyWlLk6GJQsqaUBKTNV-1">
          <mxGeometry x="470" y="40" width="120" height="80" as="geometry" />
        </mxCell>
        <mxCell id="AribuOAmtC18cTt_f9BC-29" value="" style="edgeStyle=orthogonalEdgeStyle;rounded=0;orthogonalLoop=1;jettySize=auto;html=1;" edge="1" parent="WIyWlLk6GJQsqaUBKTNV-1" source="AribuOAmtC18cTt_f9BC-1" target="AribuOAmtC18cTt_f9BC-5">
          <mxGeometry relative="1" as="geometry" />
        </mxCell>
        <mxCell id="AribuOAmtC18cTt_f9BC-1" value="Gaode&lt;br&gt;serivce" style="ellipse;whiteSpace=wrap;html=1;" vertex="1" parent="WIyWlLk6GJQsqaUBKTNV-1">
          <mxGeometry x="270" y="40" width="120" height="80" as="geometry" />
        </mxCell>
        <mxCell id="AribuOAmtC18cTt_f9BC-28" value="" style="edgeStyle=orthogonalEdgeStyle;rounded=0;orthogonalLoop=1;jettySize=auto;html=1;" edge="1" parent="WIyWlLk6GJQsqaUBKTNV-1" source="AribuOAmtC18cTt_f9BC-2" target="AribuOAmtC18cTt_f9BC-4">
          <mxGeometry relative="1" as="geometry" />
        </mxCell>
        <mxCell id="AribuOAmtC18cTt_f9BC-2" value="User" style="ellipse;whiteSpace=wrap;html=1;" vertex="1" parent="WIyWlLk6GJQsqaUBKTNV-1">
          <mxGeometry x="40" y="40" width="120" height="80" as="geometry" />
        </mxCell>
        <mxCell id="AribuOAmtC18cTt_f9BC-7" value="" style="edgeStyle=orthogonalEdgeStyle;rounded=0;orthogonalLoop=1;jettySize=auto;html=1;entryX=0;entryY=0.5;entryDx=0;entryDy=0;" edge="1" parent="WIyWlLk6GJQsqaUBKTNV-1" source="AribuOAmtC18cTt_f9BC-4" target="AribuOAmtC18cTt_f9BC-5">
          <mxGeometry relative="1" as="geometry">
            <mxPoint x="240" y="200" as="targetPoint" />
          </mxGeometry>
        </mxCell>
        <mxCell id="AribuOAmtC18cTt_f9BC-4" value="&lt;span&gt;在高德上选点&lt;/span&gt;" style="rounded=1;whiteSpace=wrap;html=1;" vertex="1" parent="WIyWlLk6GJQsqaUBKTNV-1">
          <mxGeometry x="40" y="170" width="120" height="60" as="geometry" />
        </mxCell>
        <mxCell id="AribuOAmtC18cTt_f9BC-9" value="" style="edgeStyle=orthogonalEdgeStyle;rounded=0;orthogonalLoop=1;jettySize=auto;html=1;" edge="1" parent="WIyWlLk6GJQsqaUBKTNV-1" source="AribuOAmtC18cTt_f9BC-5" target="AribuOAmtC18cTt_f9BC-8">
          <mxGeometry relative="1" as="geometry" />
        </mxCell>
        <mxCell id="AribuOAmtC18cTt_f9BC-16" value="" style="edgeStyle=orthogonalEdgeStyle;rounded=0;orthogonalLoop=1;jettySize=auto;html=1;" edge="1" parent="WIyWlLk6GJQsqaUBKTNV-1" source="AribuOAmtC18cTt_f9BC-5" target="AribuOAmtC18cTt_f9BC-11">
          <mxGeometry relative="1" as="geometry" />
        </mxCell>
        <mxCell id="AribuOAmtC18cTt_f9BC-5" value="高德调用&lt;br&gt;预估价格接口&lt;br&gt;进行匹配" style="rounded=1;whiteSpace=wrap;html=1;" vertex="1" parent="WIyWlLk6GJQsqaUBKTNV-1">
          <mxGeometry x="270" y="170" width="120" height="60" as="geometry" />
        </mxCell>
        <mxCell id="AribuOAmtC18cTt_f9BC-8" value="获取上下车点坐标，&lt;br&gt;与weiridego 运营的点，通过算法进行匹配，得出是否命中" style="rounded=1;whiteSpace=wrap;html=1;" vertex="1" parent="WIyWlLk6GJQsqaUBKTNV-1">
          <mxGeometry x="470" y="170" width="120" height="60" as="geometry" />
        </mxCell>
        <mxCell id="AribuOAmtC18cTt_f9BC-10" value="" style="endArrow=classic;html=1;entryX=1;entryY=0.5;entryDx=0;entryDy=0;exitX=0;exitY=0.5;exitDx=0;exitDy=0;" edge="1" parent="WIyWlLk6GJQsqaUBKTNV-1" source="AribuOAmtC18cTt_f9BC-8" target="AribuOAmtC18cTt_f9BC-5">
          <mxGeometry width="50" height="50" relative="1" as="geometry">
            <mxPoint x="440" y="310" as="sourcePoint" />
            <mxPoint x="490" y="260" as="targetPoint" />
          </mxGeometry>
        </mxCell>
        <mxCell id="AribuOAmtC18cTt_f9BC-11" value="是否命中&lt;br&gt;上下车点" style="rhombus;whiteSpace=wrap;html=1;" vertex="1" parent="WIyWlLk6GJQsqaUBKTNV-1">
          <mxGeometry x="290" y="280" width="80" height="80" as="geometry" />
        </mxCell>
        <mxCell id="AribuOAmtC18cTt_f9BC-19" value="" style="edgeStyle=orthogonalEdgeStyle;rounded=0;orthogonalLoop=1;jettySize=auto;html=1;" edge="1" parent="WIyWlLk6GJQsqaUBKTNV-1" source="AribuOAmtC18cTt_f9BC-13" target="AribuOAmtC18cTt_f9BC-18">
          <mxGeometry relative="1" as="geometry" />
        </mxCell>
        <mxCell id="AribuOAmtC18cTt_f9BC-13" value="在高德地图上会看到&lt;br&gt;文远知行选项" style="rounded=1;whiteSpace=wrap;html=1;" vertex="1" parent="WIyWlLk6GJQsqaUBKTNV-1">
          <mxGeometry x="40" y="330" width="120" height="60" as="geometry" />
        </mxCell>
        <mxCell id="AribuOAmtC18cTt_f9BC-33" value="" style="edgeStyle=orthogonalEdgeStyle;rounded=0;orthogonalLoop=1;jettySize=auto;html=1;" edge="1" parent="WIyWlLk6GJQsqaUBKTNV-1" source="AribuOAmtC18cTt_f9BC-18" target="AribuOAmtC18cTt_f9BC-32">
          <mxGeometry relative="1" as="geometry" />
        </mxCell>
        <mxCell id="AribuOAmtC18cTt_f9BC-40" value="" style="edgeStyle=orthogonalEdgeStyle;rounded=0;orthogonalLoop=1;jettySize=auto;html=1;" edge="1" parent="WIyWlLk6GJQsqaUBKTNV-1" source="AribuOAmtC18cTt_f9BC-18" target="AribuOAmtC18cTt_f9BC-39">
          <mxGeometry relative="1" as="geometry" />
        </mxCell>
        <mxCell id="AribuOAmtC18cTt_f9BC-18" value="选择文远知行选项&lt;br&gt;进行呼叫" style="rounded=1;whiteSpace=wrap;html=1;" vertex="1" parent="WIyWlLk6GJQsqaUBKTNV-1">
          <mxGeometry x="40" y="440" width="120" height="60" as="geometry" />
        </mxCell>
        <mxCell id="AribuOAmtC18cTt_f9BC-55" value="" style="edgeStyle=orthogonalEdgeStyle;rounded=0;orthogonalLoop=1;jettySize=auto;html=1;" edge="1" parent="WIyWlLk6GJQsqaUBKTNV-1" source="AribuOAmtC18cTt_f9BC-39" target="AribuOAmtC18cTt_f9BC-54">
          <mxGeometry relative="1" as="geometry" />
        </mxCell>
        <mxCell id="AribuOAmtC18cTt_f9BC-39" value="更新用户订单状态，&lt;br&gt;与车辆位置信息" style="rounded=1;whiteSpace=wrap;html=1;" vertex="1" parent="WIyWlLk6GJQsqaUBKTNV-1">
          <mxGeometry x="40" y="580" width="120" height="60" as="geometry" />
        </mxCell>
        <mxCell id="AribuOAmtC18cTt_f9BC-35" value="" style="edgeStyle=orthogonalEdgeStyle;rounded=0;orthogonalLoop=1;jettySize=auto;html=1;" edge="1" parent="WIyWlLk6GJQsqaUBKTNV-1" source="AribuOAmtC18cTt_f9BC-32" target="AribuOAmtC18cTt_f9BC-34">
          <mxGeometry relative="1" as="geometry" />
        </mxCell>
        <mxCell id="AribuOAmtC18cTt_f9BC-32" value="通过高德服务&lt;br&gt;调用创建订单" style="rounded=1;whiteSpace=wrap;html=1;" vertex="1" parent="WIyWlLk6GJQsqaUBKTNV-1">
          <mxGeometry x="270" y="440" width="120" height="60" as="geometry" />
        </mxCell>
        <mxCell id="AribuOAmtC18cTt_f9BC-22" value="在高德地图上无&lt;br&gt;文远知行选项" style="rounded=1;whiteSpace=wrap;html=1;" vertex="1" parent="WIyWlLk6GJQsqaUBKTNV-1">
          <mxGeometry x="40" y="250" width="120" height="60" as="geometry" />
        </mxCell>
        <mxCell id="AribuOAmtC18cTt_f9BC-23" value="" style="endArrow=classic;html=1;exitX=0;exitY=0.5;exitDx=0;exitDy=0;entryX=1;entryY=0.5;entryDx=0;entryDy=0;edgeStyle=orthogonalEdgeStyle;" edge="1" parent="WIyWlLk6GJQsqaUBKTNV-1" source="AribuOAmtC18cTt_f9BC-11" target="AribuOAmtC18cTt_f9BC-22">
          <mxGeometry width="50" height="50" relative="1" as="geometry">
            <mxPoint x="260" y="450" as="sourcePoint" />
            <mxPoint x="310" y="400" as="targetPoint" />
          </mxGeometry>
        </mxCell>
        <mxCell id="AribuOAmtC18cTt_f9BC-25" value="否" style="edgeLabel;html=1;align=center;verticalAlign=middle;resizable=0;points=[];" vertex="1" connectable="0" parent="AribuOAmtC18cTt_f9BC-23">
          <mxGeometry x="0.4824" y="-4" relative="1" as="geometry">
            <mxPoint as="offset" />
          </mxGeometry>
        </mxCell>
        <mxCell id="AribuOAmtC18cTt_f9BC-24" value="" style="endArrow=classic;html=1;exitX=0;exitY=0.5;exitDx=0;exitDy=0;entryX=1;entryY=0.5;entryDx=0;entryDy=0;edgeStyle=orthogonalEdgeStyle;" edge="1" parent="WIyWlLk6GJQsqaUBKTNV-1" source="AribuOAmtC18cTt_f9BC-11" target="AribuOAmtC18cTt_f9BC-13">
          <mxGeometry width="50" height="50" relative="1" as="geometry">
            <mxPoint x="270" y="430" as="sourcePoint" />
            <mxPoint x="320" y="380" as="targetPoint" />
          </mxGeometry>
        </mxCell>
        <mxCell id="AribuOAmtC18cTt_f9BC-26" value="是" style="edgeLabel;html=1;align=center;verticalAlign=middle;resizable=0;points=[];" vertex="1" connectable="0" parent="AribuOAmtC18cTt_f9BC-24">
          <mxGeometry x="0.5294" y="1" relative="1" as="geometry">
            <mxPoint as="offset" />
          </mxGeometry>
        </mxCell>
        <mxCell id="AribuOAmtC18cTt_f9BC-38" value="" style="edgeStyle=orthogonalEdgeStyle;rounded=0;orthogonalLoop=1;jettySize=auto;html=1;" edge="1" parent="WIyWlLk6GJQsqaUBKTNV-1" source="AribuOAmtC18cTt_f9BC-34" target="AribuOAmtC18cTt_f9BC-37">
          <mxGeometry relative="1" as="geometry" />
        </mxCell>
        <mxCell id="AribuOAmtC18cTt_f9BC-34" value="创建高德订单" style="rounded=1;whiteSpace=wrap;html=1;" vertex="1" parent="WIyWlLk6GJQsqaUBKTNV-1">
          <mxGeometry x="470" y="440" width="120" height="60" as="geometry" />
        </mxCell>
        <mxCell id="AribuOAmtC18cTt_f9BC-61" value="" style="edgeStyle=orthogonalEdgeStyle;rounded=0;orthogonalLoop=1;jettySize=auto;html=1;" edge="1" parent="WIyWlLk6GJQsqaUBKTNV-1" source="AribuOAmtC18cTt_f9BC-37" target="AribuOAmtC18cTt_f9BC-44">
          <mxGeometry relative="1" as="geometry" />
        </mxCell>
        <mxCell id="AribuOAmtC18cTt_f9BC-37" value="通过派单服务&lt;br&gt;完成高德订单与无人车派单服务，更新订单状态" style="rounded=1;whiteSpace=wrap;html=1;" vertex="1" parent="WIyWlLk6GJQsqaUBKTNV-1">
          <mxGeometry x="470" y="580" width="120" height="60" as="geometry" />
        </mxCell>
        <mxCell id="AribuOAmtC18cTt_f9BC-63" value="" style="edgeStyle=orthogonalEdgeStyle;rounded=0;orthogonalLoop=1;jettySize=auto;html=1;" edge="1" parent="WIyWlLk6GJQsqaUBKTNV-1" source="AribuOAmtC18cTt_f9BC-44" target="AribuOAmtC18cTt_f9BC-39">
          <mxGeometry relative="1" as="geometry">
            <mxPoint x="190" y="610" as="targetPoint" />
          </mxGeometry>
        </mxCell>
        <mxCell id="AribuOAmtC18cTt_f9BC-44" value="同步订单状态与&lt;br&gt;司机位置" style="rounded=1;whiteSpace=wrap;html=1;" vertex="1" parent="WIyWlLk6GJQsqaUBKTNV-1">
          <mxGeometry x="270" y="580" width="120" height="60" as="geometry" />
        </mxCell>
        <mxCell id="AribuOAmtC18cTt_f9BC-58" value="" style="edgeStyle=orthogonalEdgeStyle;rounded=0;orthogonalLoop=1;jettySize=auto;html=1;" edge="1" parent="WIyWlLk6GJQsqaUBKTNV-1" source="AribuOAmtC18cTt_f9BC-54" target="AribuOAmtC18cTt_f9BC-56">
          <mxGeometry relative="1" as="geometry">
            <mxPoint x="240" y="730" as="targetPoint" />
          </mxGeometry>
        </mxCell>
        <mxCell id="AribuOAmtC18cTt_f9BC-67" value="" style="edgeStyle=orthogonalEdgeStyle;rounded=0;orthogonalLoop=1;jettySize=auto;html=1;" edge="1" parent="WIyWlLk6GJQsqaUBKTNV-1" source="AribuOAmtC18cTt_f9BC-54" target="AribuOAmtC18cTt_f9BC-66">
          <mxGeometry relative="1" as="geometry" />
        </mxCell>
        <mxCell id="AribuOAmtC18cTt_f9BC-54" value="车辆到达起点，&lt;br&gt;用户点击出发" style="rounded=1;whiteSpace=wrap;html=1;" vertex="1" parent="WIyWlLk6GJQsqaUBKTNV-1">
          <mxGeometry x="40" y="700" width="120" height="60" as="geometry" />
        </mxCell>
        <mxCell id="AribuOAmtC18cTt_f9BC-56" value="更新订单状态为&lt;br&gt;已上车" style="rounded=1;whiteSpace=wrap;html=1;" vertex="1" parent="WIyWlLk6GJQsqaUBKTNV-1">
          <mxGeometry x="470" y="700" width="120" height="60" as="geometry" />
        </mxCell>
        <mxCell id="AribuOAmtC18cTt_f9BC-69" value="" style="edgeStyle=orthogonalEdgeStyle;rounded=0;orthogonalLoop=1;jettySize=auto;html=1;" edge="1" parent="WIyWlLk6GJQsqaUBKTNV-1" source="AribuOAmtC18cTt_f9BC-64" target="AribuOAmtC18cTt_f9BC-66">
          <mxGeometry relative="1" as="geometry">
            <mxPoint x="190" y="830" as="targetPoint" />
          </mxGeometry>
        </mxCell>
        <mxCell id="AribuOAmtC18cTt_f9BC-64" value="同步订单状态与&lt;br&gt;司机位置" style="rounded=1;whiteSpace=wrap;html=1;" vertex="1" parent="WIyWlLk6GJQsqaUBKTNV-1">
          <mxGeometry x="270" y="800" width="120" height="60" as="geometry" />
        </mxCell>
        <mxCell id="AribuOAmtC18cTt_f9BC-65" value="" style="endArrow=classic;html=1;exitX=0.5;exitY=1;exitDx=0;exitDy=0;entryX=1;entryY=0.5;entryDx=0;entryDy=0;edgeStyle=orthogonalEdgeStyle;" edge="1" parent="WIyWlLk6GJQsqaUBKTNV-1" source="AribuOAmtC18cTt_f9BC-56" target="AribuOAmtC18cTt_f9BC-64">
          <mxGeometry width="50" height="50" relative="1" as="geometry">
            <mxPoint x="460" y="890" as="sourcePoint" />
            <mxPoint x="510" y="840" as="targetPoint" />
          </mxGeometry>
        </mxCell>
        <mxCell id="AribuOAmtC18cTt_f9BC-76" value="" style="edgeStyle=orthogonalEdgeStyle;rounded=0;orthogonalLoop=1;jettySize=auto;html=1;" edge="1" parent="WIyWlLk6GJQsqaUBKTNV-1" source="AribuOAmtC18cTt_f9BC-66" target="AribuOAmtC18cTt_f9BC-75">
          <mxGeometry relative="1" as="geometry" />
        </mxCell>
        <mxCell id="AribuOAmtC18cTt_f9BC-66" value="高德订单状态&lt;br&gt;与车辆位置变更" style="rounded=1;whiteSpace=wrap;html=1;" vertex="1" parent="WIyWlLk6GJQsqaUBKTNV-1">
          <mxGeometry x="40" y="800" width="120" height="60" as="geometry" />
        </mxCell>
        <mxCell id="AribuOAmtC18cTt_f9BC-74" value="" style="edgeStyle=orthogonalEdgeStyle;rounded=0;orthogonalLoop=1;jettySize=auto;html=1;" edge="1" parent="WIyWlLk6GJQsqaUBKTNV-1" source="AribuOAmtC18cTt_f9BC-70" target="AribuOAmtC18cTt_f9BC-73">
          <mxGeometry relative="1" as="geometry" />
        </mxCell>
        <mxCell id="AribuOAmtC18cTt_f9BC-70" value="车辆到达目的地，&lt;br&gt;状态变更为已到达&lt;br&gt;且已支付" style="rounded=1;whiteSpace=wrap;html=1;" vertex="1" parent="WIyWlLk6GJQsqaUBKTNV-1">
          <mxGeometry x="470" y="900" width="120" height="60" as="geometry" />
        </mxCell>
        <mxCell id="AribuOAmtC18cTt_f9BC-72" value="" style="endArrow=classic;html=1;exitX=0.5;exitY=1;exitDx=0;exitDy=0;entryX=0.5;entryY=0;entryDx=0;entryDy=0;" edge="1" parent="WIyWlLk6GJQsqaUBKTNV-1" source="AribuOAmtC18cTt_f9BC-56" target="AribuOAmtC18cTt_f9BC-70">
          <mxGeometry width="50" height="50" relative="1" as="geometry">
            <mxPoint x="610" y="900" as="sourcePoint" />
            <mxPoint x="660" y="850" as="targetPoint" />
          </mxGeometry>
        </mxCell>
        <mxCell id="AribuOAmtC18cTt_f9BC-78" value="" style="edgeStyle=orthogonalEdgeStyle;rounded=0;orthogonalLoop=1;jettySize=auto;html=1;" edge="1" parent="WIyWlLk6GJQsqaUBKTNV-1" source="AribuOAmtC18cTt_f9BC-73" target="AribuOAmtC18cTt_f9BC-75">
          <mxGeometry relative="1" as="geometry">
            <mxPoint x="190" y="930" as="targetPoint" />
          </mxGeometry>
        </mxCell>
        <mxCell id="AribuOAmtC18cTt_f9BC-73" value="同步订单状态与&lt;br&gt;司机位置" style="rounded=1;whiteSpace=wrap;html=1;" vertex="1" parent="WIyWlLk6GJQsqaUBKTNV-1">
          <mxGeometry x="270" y="900" width="120" height="60" as="geometry" />
        </mxCell>
        <mxCell id="AribuOAmtC18cTt_f9BC-75" value="高德订单结束" style="rounded=1;whiteSpace=wrap;html=1;" vertex="1" parent="WIyWlLk6GJQsqaUBKTNV-1">
          <mxGeometry x="40" y="900" width="120" height="60" as="geometry" />
        </mxCell>
      </root>
    </mxGraphModel>
  </diagram>
</mxfile>
